<svg width="451" height="250" viewBox="0 0 451 250" fill="none" xmlns="http://www.w3.org/2000/svg">
<g clip-path="url(#clip0)">
<path d="M450.408 181.829L345.484 0.0496826L240.562 181.829H450.408Z" fill="#FBAC30"/>
<path d="M450.408 181.829L410.977 136.384H279.99L240.562 181.829H450.408Z" fill="#12B17D"/>
<path d="M345.484 249.995L410.977 136.384H279.99L345.484 249.995Z" fill="#BB255C"/>
<path d="M97.4253 165.229H47.644L42.5859 181.957H0L47.8357 52.2467H97.2297L145.069 181.957H102.48L97.4253 165.229ZM57.7532 132.563H87.3122L72.5334 86.8611L57.7532 132.563ZM119.197 52.2467H163.728L191.734 139.563L219.736 52.2467H264.269L216.431 181.957H167.037L119.197 52.2467" fill="black"/>
<path d="M337.912 84.724L324.3 98.1407L309.908 82.9725L341.606 52.2467H363.581V130.033H337.912V84.724" fill="#F1F4D4"/>
</g>
<defs>
<clipPath id="clip0">
<rect width="450.421" height="250" fill="white"/>
</clipPath>
</defs>
</svg>
